PathFileType	4	(X/Y/Z)	\\147.46.242.158\로컬 디스크 (e)\MOCAP Data\Iguana Capture\iguana\Project 2\Capture day 7\Session 2\Take12.trc
DataRate	CameraRate	NumFrames	NumMarkers	Units	OrigDataRate	OrigDataStartFrame	OrigNumFrames
120.0	120.0	7	23	mm	120.0	119	16798
Frame#	Time	ana:head1			ana:head2			ana:bone1			ana:bone2			ana:bone3			ana:tail1			ana:tail2			ana:tail3			ana:tail4			ana:Rforefoot1			ana:Rforefoot2			ana:Rforefoot3			ana:Lforefoot1			ana:Lforefoot2			ana:Lforefoot3			ana:RhindLeg1			ana:RhindLeg2			ana:RhindLeg3			ana:RhindLeg4			ana:LhindLeg1			ana:LhindLeg2			ana:LhindLeg3			ana:LhindLeg4			
		X1	Y1	Z1	X2	Y2	Z2	X3	Y3	Z3	X4	Y4	Z4	X5	Y5	Z5	X6	Y6	Z6	X7	Y7	Z7	X8	Y8	Z8	X9	Y9	Z9	X10	Y10	Z10	X11	Y11	Z11	X12	Y12	Z12	X13	Y13	Z13	X14	Y14	Z14	X15	Y15	Z15	X16	Y16	Z16	X17	Y17	Z17	X18	Y18	Z18	X19	Y19	Z19	X20	Y20	Z20	X21	Y21	Z21	X22	Y22	Z22	X23	Y23	Z23	

2348	19.558	339.78683	173.83615	31.10265	329.82986	174.84079	35.55201	305.56946	173.31616	37.79389	282.01514	155.99161	35.71730	270.62448	126.93901	21.89563	264.86813	97.53977	12.74766	278.53418	62.28010	8.65404	295.45859	24.35772	6.70321	302.11551	-17.00581	5.64866	309.12329	163.04868	20.25434	300.48697	151.36621	13.93930	307.73990	161.03493	1.60612	301.99432	184.67973	24.97394	289.63007	188.64682	26.39380	280.48450	193.92134	10.39735	280.30765	125.00156	17.06594	298.24680	131.86711	21.47208	311.13922	125.78628	4.35635	314.88071	135.22168	3.73742	263.57413	130.94652	16.03174	254.08162	146.49867	20.33319	242.00089	146.39813	2.73778	242.58223	157.23363	3.68462	
2349	19.567	339.99338	174.07974	30.55240	330.03369	175.02283	35.05803	305.76950	173.36542	37.55046	282.05573	156.33194	35.52743	270.61200	127.03577	21.94673	264.85098	97.61600	12.81376	278.50577	62.33261	8.66866	295.45102	24.42010	6.70091	302.11801	-16.89827	5.65499	309.20807	163.12756	20.05552	300.58942	151.39581	13.92112	307.64240	161.13095	1.54666	302.21072	184.70750	24.78673	289.87888	188.64313	26.35476	280.88181	194.01266	10.27684	280.27982	125.03574	17.08455	298.16727	131.84120	21.61012	310.88892	125.26424	4.45257	314.66422	134.75307	3.77915	263.62473	131.05890	16.02607	254.08775	146.58527	20.34150	242.00905	146.39961	2.73579	242.57356	157.28197	3.69588	
2350	19.575	340.16504	174.31122	30.08223	330.21390	175.19846	34.63794	305.93631	173.40721	37.34243	282.09128	156.64125	35.36928	270.61322	127.09896	21.98647	264.83478	97.69788	12.89111	278.48053	62.39650	8.67779	295.44464	24.48453	6.69186	302.11127	-16.77596	5.66112	309.28333	163.20209	19.89473	300.62659	151.43834	13.87955	307.56647	161.20517	1.47415	302.39316	184.73277	24.63032	290.08466	188.67622	26.32759	281.23508	194.08109	10.14001	280.24768	125.07735	17.10961	298.07098	131.82497	21.74416	310.68634	124.77270	4.60465	314.47659	134.39146	3.98817	263.62006	131.11528	16.03476	254.08458	146.67149	20.35598	242.01639	146.40157	2.73001	242.56461	157.33688	3.70170	
2351	19.583	340.30386	174.52608	29.68819	330.35693	175.36389	34.29473	306.07535	173.43948	37.18476	282.13510	156.86510	35.26930	270.63324	127.17496	21.98932	264.81107	97.77747	12.96334	278.45667	62.45261	8.68875	295.44083	24.55042	6.68123	302.10135	-16.64456	5.66645	309.34607	163.24184	19.78707	300.57758	151.48296	13.81180	307.53546	161.23784	1.39176	302.53259	184.74590	24.50999	290.28171	188.72795	26.36726	281.59900	194.18495	10.04593	280.20810	125.12928	17.13767	297.95267	131.79539	21.86974	310.46542	124.36113	4.89342	314.40057	133.90681	4.48776	263.60013	131.18147	16.05686	254.07135	146.74725	20.37312	242.02257	146.40607	2.72807	242.54967	157.38986	3.70234	
2352	19.592	340.40845	174.71497	29.37659	330.52017	175.53549	34.02709	306.20599	173.48615	37.04258	282.17673	157.00546	35.21917	270.60397	127.24780	22.01513	264.77911	97.85558	13.02369	278.43179	62.50368	8.69856	295.43872	24.61594	6.66713	302.10223	-16.54976	5.67398	309.39093	163.30266	19.71352	300.47256	151.52483	13.72854	307.51468	161.27196	1.30969	302.64932	184.76588	24.42973	290.46149	188.77834	26.42162	281.95886	194.32246	10.00735	280.15988	125.19176	17.16726	297.83173	131.71088	22.00654	310.20529	123.92036	5.16899	314.36319	133.37212	5.08320	263.56836	131.23398	16.05866	254.05171	146.81807	20.39067	242.02676	146.41144	2.72720	242.49187	157.53085	3.72668	
2353	19.600	340.47964	174.88434	29.12394	330.70508	175.73822	33.81109	306.31854	173.52678	36.91851	282.25916	156.96600	35.26168	270.58771	127.30959	22.01852	264.73181	97.92333	13.06891	278.41199	62.55212	8.70728	295.43814	24.68905	6.63914	302.12036	-16.53406	5.68117	309.42593	163.32088	19.67522	300.36169	151.55537	13.67643	307.49680	161.29634	1.22325	302.74142	184.78831	24.38630	290.63086	188.82214	26.49286	282.29541	194.44833	10.00080	280.09488	125.25562	17.19936	297.69858	131.56738	22.17089	309.85208	123.32133	5.46668	314.37689	132.61180	5.76229	263.51950	131.28378	16.05901	254.03032	146.88849	20.40809	242.02910	146.41335	2.72834	242.45126	157.62993	3.74128	
2354	19.608	340.52646	175.02667	28.91117	330.86279	175.92867	33.64692	306.41592	173.56831	36.80574	282.33228	156.86397	35.32705	270.54755	127.36714	22.02849	264.66992	97.99352	13.10996	278.37234	62.59810	8.71297	295.42780	24.75895	6.61809	302.14883	-16.54004	5.68624	309.46216	163.29060	19.65857	300.24808	151.57187	13.61289	307.48541	161.29999	1.13403	302.82779	184.80989	24.36350	290.79260	188.86075	26.56820	282.60327	194.55588	10.02416	280.00116	125.30094	17.24492	297.53250	131.42268	22.33866	309.33047	122.63255	5.78141	314.28589	131.67505	6.46551	263.45923	131.34299	16.05093	254.00284	146.95845	20.42397	242.02884	146.41129	2.73179	242.40230	157.75159	3.76100	
